<svg xmlns="http://www.w3.org/2000/svg" viewBox="0 0 1604 1604" width="32" height="32">
<path fill="rgb(253,1,0)" d="M 581.934 1345.58 C 588.241 1335.22 591.871 1326.78 597.369 1316.17 L 626.604 1260.26 C 632.777 1248.63 647.396 1228.67 651.626 1218.02 C 661.09 1194.2 673.702 1179.45 685.401 1158.07 C 721.108 1092.81 757.075 1027.56 792.463 962.223 C 796.501 954.766 785.658 948.289 791.159 939.983 C 806.376 911.356 821.806 882.85 837.62 854.546 C 847.167 837.373 854.615 816.742 866.231 800.712 C 878.843 787.033 883.79 763.982 893.713 748.888 C 917.686 712.422 934.921 672.799 957.443 635.64 C 962.288 627.648 967.571 618.062 971.491 609.579 C 980.261 590.279 992.731 573.168 1003.16 554.78 C 1042.73 484.993 1080.61 414.368 1119.3 344.128 C 1121.69 339.791 1128.07 334.864 1131.76 331.506 C 1147.63 317.059 1168.84 319.008 1188.65 320.296 C 1227.73 322.688 1274.39 364.338 1267.39 405.883 C 1263.92 426.421 1239.57 464.417 1229 483.577 C 1213.37 512.516 1197.6 541.374 1181.67 570.151 C 1133.31 659.607 1084.12 748.612 1034.11 837.155 L 1000.89 896.756 C 994.203 908.768 988.814 919.193 980.803 929.923 C 961.741 955.455 906.433 943.648 901.217 953.032 C 887.944 976.913 857.565 1032.83 846.812 1060.33 C 843.366 1069.14 842.348 1098.39 840.894 1108.66 C 830.99 1178.63 785.129 1241.1 730.49 1283.72 C 711.863 1298.26 689.546 1308.28 670.794 1322.98 C 714.146 1319.45 749.414 1320.1 792.894 1320.14 L 939.868 1320.34 L 1101.52 1320.3 C 1130.27 1320.3 1159.14 1320.07 1187.86 1320.4 C 1231.12 1320.9 1276.56 1326.49 1319 1334.98 C 1333.72 1336.84 1353.74 1342.12 1367.57 1347.36 C 1358.01 1347.77 1322.81 1346.21 1312.55 1345.09 C 1306.87 1345.47 1296.06 1344.98 1289.74 1344.96 L 1243.64 1345.16 L 1076.38 1345.43 L 581.934 1345.58 z M 1182.61 437.48 C 1224.33 421.897 1202.45 375.637 1171.4 379.116 C 1143.03 388.189 1141.14 423.3 1164.1 436.795 C 1169.85 437.217 1177.01 437.977 1182.61 437.48 z M 960.243 715.407 L 1017.27 715.394 C 1026.06 715.379 1040.96 714.867 1049.19 716.105 C 1059.39 713.417 1063.48 699.209 1066.81 690.055 C 1036.61 690.683 1006.39 689.658 976.317 690.173 C 970.085 696.914 966.706 707.249 960.243 715.407 z M 1043.1 562.148 C 1039.07 570.494 1034.73 578.687 1030.1 586.711 C 1043.69 583.527 1090.56 585.155 1107.84 584.854 C 1131.4 585.495 1127.17 580.648 1136.79 561.227 C 1118.63 559.152 1078.02 559.832 1058.5 560.518 C 1052.71 560.857 1048.77 561.034 1043.1 562.148 z M 996.081 822.244 C 970.912 819.383 943.435 821.799 918.047 821.058 C 913.488 820.924 908.073 820.835 903.526 820.976 C 899.031 826.343 893.85 838.609 891.198 845.208 C 915.135 843.807 962.604 847.184 983.254 843.73 C 988.352 837.105 987.569 832.375 996.081 822.244 z M 1076.5 649.732 C 1097.39 650.225 1092.94 640.214 1104.04 625.97 C 1078.07 625.452 1050.85 624.688 1024.91 625.535 C 1020.23 625.764 1013.6 625.898 1009.11 626.437 C 1005.42 634.175 1001.27 642.996 998.918 651.226 C 1012.71 648.628 1060.25 649.594 1076.5 649.732 z M 946.203 755.363 C 933.603 757.1 930.884 770.656 927.814 781.442 C 938.569 779.142 999.106 778.271 1010.42 779.826 C 1019.27 777.643 1026.94 767.18 1028.12 758.51 L 1027.38 756.521 C 1018.72 753.738 958.331 754.764 946.203 755.363 z"/>
<path fill="rgb(148,29,20)" d="M 1319 1334.98 C 1333.72 1336.84 1353.74 1342.12 1367.57 1347.36 C 1358.01 1347.77 1322.81 1346.21 1312.55 1345.09 C 1316.78 1344.61 1325.94 1343.21 1329.38 1343.85 C 1329.54 1341.42 1329.76 1340.79 1329.08 1338.43 C 1325.87 1337.52 1323.62 1337.29 1320.29 1336.84 L 1319 1334.98 z"/>
<path fill="rgb(253,1,0)" d="M 757.902 260.423 C 858.021 254.637 961.709 276.838 1050.6 323.096 C 1058.06 326.98 1079.92 338.076 1082.67 345.287 C 1082.48 352.474 1049.83 412.707 1042.98 419.734 C 1041.77 420.969 1040.22 422.284 1038.43 422.537 C 1035.64 422.934 985.166 396.068 976.562 392.513 C 918.248 368.415 857.552 353.734 794.138 354.023 C 685.289 354.518 586.816 385.659 501.663 454.583 C 488.786 465.006 476.204 475.449 464.572 487.27 C 455.315 496.678 447.034 507.13 438.638 517.304 C 399.589 564.624 378.961 602.532 358.659 660.334 C 350.475 683.635 343.618 706.312 339.606 730.778 C 334.49 761.977 333.721 794.09 333.988 825.632 C 335.05 951.206 390.242 1066.49 479.197 1153.66 C 501.919 1175.56 535.576 1200.76 562.666 1217.71 C 575.21 1225.55 598.08 1235.56 608.516 1244.1 C 599.534 1259.06 573.515 1315.78 564.194 1322.11 C 545.7 1323.4 455.958 1260.55 439.002 1245.94 C 322.369 1146.21 250.261 1004.14 238.618 851.122 C 230.863 729.698 261.745 608.934 326.838 506.138 C 330.901 499.791 337.37 488.314 341.608 482.856 C 349.946 472.118 360.694 460.885 369.518 450.271 C 396.518 417.792 427.228 390.897 460.586 365.133 C 469.763 359.185 481.134 346.263 490.476 341.548 C 517.905 327.702 545.402 312.192 573.555 299.89 C 582.862 295.823 594.355 293.075 603.908 289.841 C 653.517 273.046 705.784 264.301 757.902 260.423 z"/>
<path fill="rgb(253,1,0)" d="M 849.648 578.751 C 859.378 577.48 873.328 577.877 883.469 577.892 C 903.162 578.111 922.857 578.01 942.547 577.59 C 933.042 587.683 920.811 610.343 912.239 622.586 C 888.84 656.004 865.03 689.727 842.372 723.604 C 834.869 734.822 821.477 753.25 816.869 764.758 C 822.131 777.751 830.52 795.732 834.527 808.535 C 831.788 818.223 802.8 869.817 796.31 882.676 C 793.378 888.157 786.228 901.091 780.841 903.505 C 777.023 899.659 761.647 854.119 756.942 844.715 L 756.356 843.559 C 729.097 874.639 705.681 922.596 676.467 954.645 C 666.766 955.727 592.969 957.755 589.575 954.074 C 589.702 946.245 602.999 928.459 607.783 920.599 C 613.707 910.868 621.632 896.987 628.577 888.23 C 647.525 864.337 663.684 839.127 681.123 814.185 C 693.666 796.745 708.26 780.669 718.835 761.697 L 719.607 760.295 C 714.388 749.698 711.164 738.169 706.669 727.186 L 672.937 644.212 L 652.134 592.87 C 650.349 588.457 646.638 582.022 646.024 578.2 C 670.54 576.956 713.541 577.467 738.501 578.112 C 753.735 611.678 766.38 650.693 781.233 684.648 C 796.269 657.647 815.009 631.186 831.528 604.98 C 836.998 596.304 843.117 586.559 849.648 578.751 z"/>
<path fill="rgb(253,1,0)" d="M 434.081 578.254 C 474.926 576.903 516.695 578.686 557.64 577.927 C 579.961 577.514 603.103 577.655 625.432 578.089 C 623.164 590.618 621.546 604.726 619.743 617.396 C 617.927 630.163 615.155 645.063 614.892 657.762 L 506.431 658.946 C 506.352 673.264 499.74 712.498 497.464 727.87 C 521.982 729.248 547.154 728.194 571.731 728.593 C 579.888 728.726 588.471 728.729 596.574 727.864 C 595.952 737.228 593.345 748.11 592.046 757.639 C 589.803 774.111 588.344 789.948 584.593 806.157 C 566.483 807.111 540.228 806.174 521.656 806.055 C 510.28 806.115 497.972 806.146 486.731 807.468 C 483.449 822.015 484.669 835.044 482.377 848.912 C 476.622 883.735 474.217 921.369 467.627 955.913 C 447.523 956.96 399.014 954.072 382.294 957.302 C 383.206 943.824 388.049 914.965 390.163 900.819 L 400.303 828.35 C 411.729 750.412 419.501 671.247 431.069 593.306 C 431.796 588.412 431.716 582.476 434.081 578.254 z"/>
</svg>
